<svg width="15" height="10" viewBox="0 0 15 10" fill="none" xmlns="http://www.w3.org/2000/svg">
<path d="M6.21574 9.27956C6.08447 9.27983 5.95445 9.25417 5.83312 9.20406C5.7118 9.15395 5.60156 9.08038 5.50874 8.98756L1.26674 4.74456C1.17117 4.65238 1.09491 4.54209 1.04241 4.42013C0.989921 4.29816 0.962244 4.16696 0.960997 4.03418C0.95975 3.9014 0.984959 3.76971 1.03515 3.64678C1.08535 3.52385 1.15952 3.41214 1.25335 3.31819C1.34717 3.22423 1.45877 3.1499 1.58163 3.09953C1.70449 3.04916 1.83615 3.02377 1.96893 3.02482C2.10171 3.02588 2.23294 3.05337 2.35499 3.1057C2.47703 3.15802 2.58742 3.23412 2.67974 3.32956L6.21474 6.86456L12.5797 0.501562C12.7672 0.313921 13.0216 0.208453 13.2869 0.208359C13.5522 0.208265 13.8066 0.313553 13.9942 0.501061C14.1819 0.68857 14.2873 0.942938 14.2874 1.20821C14.2875 1.47348 14.1822 1.72792 13.9947 1.91556L6.92274 8.98756C6.82992 9.08038 6.71968 9.15395 6.59836 9.20406C6.47703 9.25417 6.347 9.27983 6.21574 9.27956Z" fill="#2FAB73"/>
</svg>
